<svg xmlns="http://www.w3.org/2000/svg" viewBox="0 0 148.81 51.34"><defs><style>.cls-1{fill:#10ff37;}</style></defs><title>Asset 7</title><g id="Layer_2" data-name="Layer 2"><g id="Layer_1-2" data-name="Layer 1"><path class="cls-1" d="M25.67,51.34A25.67,25.67,0,1,1,51.34,25.67,25.7,25.7,0,0,1,25.67,51.34Zm0-46.67a21,21,0,1,0,21,21A21,21,0,0,0,25.67,4.67Z"/><path class="cls-1" d="M31.34,18.76a6.61,6.61,0,0,0-5.67-3.16h0A6.61,6.61,0,0,0,20,18.76L11.44,32.67h5.48l7-11.46a2,2,0,0,1,3.39,0l7.06,11.46H39.9Z"/><path d="M77,11.07l6.4,12.4H79.89l-1.5-3H70.86l-1.52,3H65.88l6.4-12.4ZM74.6,13.39,72.15,18H77.1l-2.36-4.61Z"/><path d="M89.44,17l1.91-2.36H94.6l-3.11,3.9,3.9,4.93H92.08l-2.54-3.28-2.61,3.28H83.64l3.83-4.84-3.15-4h3.29Z"/><path d="M99.93,13.45h-3V11.07h3Zm0,10h-3V14.64h3Z"/><path d="M104.4,21.1a.42.42,0,0,0,.16.23.83.83,0,0,0,.34.17,2.16,2.16,0,0,0,.57.06h3.29a1.55,1.55,0,0,0,.92-.19.62.62,0,0,0,.24-.52.59.59,0,0,0-.23-.49,1.62,1.62,0,0,0-.93-.21l-4-.07a6.86,6.86,0,0,1-1.28-.14,2.23,2.23,0,0,1-.94-.39,1.67,1.67,0,0,1-.59-.72,2.68,2.68,0,0,1-.21-1.13v-.43a3.56,3.56,0,0,1,.17-1.12,1.9,1.9,0,0,1,.58-.83,2.73,2.73,0,0,1,1.08-.53,6.61,6.61,0,0,1,1.67-.18h4a8.92,8.92,0,0,1,1.56.12,2.65,2.65,0,0,1,1.11.41,1.77,1.77,0,0,1,.66.81,3.3,3.3,0,0,1,.22,1.3H110c0-.46-.5-.69-1.49-.69h-3.09a1.44,1.44,0,0,0-.85.17.55.55,0,0,0-.22.47.45.45,0,0,0,.19.42,2.24,2.24,0,0,0,.86.14l3.88.07A8.46,8.46,0,0,1,111,18a2.85,2.85,0,0,1,1.1.46,1.78,1.78,0,0,1,.6.77,3,3,0,0,1,.18,1.1v.46a2.36,2.36,0,0,1-.9,2,4.35,4.35,0,0,1-2.66.68h-4.22a8.18,8.18,0,0,1-1.37-.11,2.79,2.79,0,0,1-1.07-.42,2.1,2.1,0,0,1-.68-.82,3,3,0,0,1-.24-1.29h2.63A.77.77,0,0,0,104.4,21.1Z"/><path d="M78.48,27.94v2.47H68.77V32.7h9.41v2.48H68.77v5.17h-3V27.94Z"/><path d="M83.48,30.32h-3V27.94h3Zm0,10h-3V31.52h3Z"/><path d="M95.91,32.53a4,4,0,0,1,1.07,3v4.81H94V36a2.55,2.55,0,0,0-.59-1.8,2.61,2.61,0,0,0-2-.63H91a2.58,2.58,0,0,0-1.91.65A2.4,2.4,0,0,0,88.45,36v4.33h-3V31.52h3v1.29a3,3,0,0,1,.31-.45,1.64,1.64,0,0,1,.53-.42,2.75,2.75,0,0,1,.87-.3,6.1,6.1,0,0,1,1.33-.12h.93A5.11,5.11,0,0,1,95.91,32.53Z"/><path d="M104.34,34.68c.65,0,1.16,0,1.55.06a5.74,5.74,0,0,1,.92.18,1.17,1.17,0,0,1,.49.29,1.9,1.9,0,0,1,.26.37V34.9a2.28,2.28,0,0,0-.11-.75,1,1,0,0,0-.35-.49,1.5,1.5,0,0,0-.65-.25,7,7,0,0,0-1-.07h-1.87a5.91,5.91,0,0,0-.94.06,2.14,2.14,0,0,0-.58.14.61.61,0,0,0-.3.23.68.68,0,0,0-.08.31H98.84a2.24,2.24,0,0,1,.87-1.93,5.16,5.16,0,0,1,2.92-.63h3.25a6.68,6.68,0,0,1,2,.25,3.43,3.43,0,0,1,1.29.69,2.47,2.47,0,0,1,.69,1,4.45,4.45,0,0,1,.2,1.35v5.49h-2.48v-1q-.14.21-.27.39a1.19,1.19,0,0,1-.46.31,3.88,3.88,0,0,1-.87.22,11.9,11.9,0,0,1-1.51.08h-2a5.28,5.28,0,0,1-2.82-.58,2.15,2.15,0,0,1-.89-2v-.5a3.63,3.63,0,0,1,.16-1.15,1.89,1.89,0,0,1,.6-.83,3,3,0,0,1,1.15-.49,9,9,0,0,1,1.82-.16ZM102,38.21a2.77,2.77,0,0,0,1,.15h2.85a3.14,3.14,0,0,0,1.08-.14c.26-.09.39-.33.39-.7a.68.68,0,0,0-.38-.69,2.88,2.88,0,0,0-1.09-.16h-2.85a2.82,2.82,0,0,0-1,.14.67.67,0,0,0-.39.71A.65.65,0,0,0,102,38.21Z"/><path d="M122.48,32.53a3.93,3.93,0,0,1,1.08,3v4.81h-3V36a2.55,2.55,0,0,0-.59-1.8,2.61,2.61,0,0,0-2-.63h-.43a2.61,2.61,0,0,0-1.92.65A2.44,2.44,0,0,0,115,36v4.33h-3V31.52h3v1.29a2.42,2.42,0,0,1,.31-.45,1.54,1.54,0,0,1,.53-.42,2.78,2.78,0,0,1,.86-.3,6.26,6.26,0,0,1,1.34-.12H119A5.06,5.06,0,0,1,122.48,32.53Z"/><path d="M136.08,38.66a1.84,1.84,0,0,1-.68.92,3.71,3.71,0,0,1-1.45.57,12.46,12.46,0,0,1-2.46.2h-1.34a12.74,12.74,0,0,1-2.55-.21,3.54,3.54,0,0,1-1.58-.66,2.32,2.32,0,0,1-.79-1.18,6,6,0,0,1-.23-1.76V35.4a5.92,5.92,0,0,1,.24-1.79A2.42,2.42,0,0,1,126,32.4a3.58,3.58,0,0,1,1.51-.69,10.52,10.52,0,0,1,2.38-.23h1.34a15.27,15.27,0,0,1,2.48.17,4.2,4.2,0,0,1,1.52.53,1.89,1.89,0,0,1,.77.92,3.6,3.6,0,0,1,.22,1.33v.18h-2.83a1,1,0,0,0-.09-.44.77.77,0,0,0-.36-.32,2.91,2.91,0,0,0-.78-.2,11.48,11.48,0,0,0-1.32-.06h-.68a5.6,5.6,0,0,0-1.26.12,2,2,0,0,0-.82.37,1.29,1.29,0,0,0-.42.64,3,3,0,0,0-.13,1v.58a1.84,1.84,0,0,0,.59,1.53,3.41,3.41,0,0,0,2.06.47h.71a10.81,10.81,0,0,0,1.31-.07A2.52,2.52,0,0,0,133,38a.66.66,0,0,0,.35-.35,1.21,1.21,0,0,0,.08-.48h2.83v.27A4.27,4.27,0,0,1,136.08,38.66Z"/><path d="M140.22,40.15a3.83,3.83,0,0,1-1.58-.67,2.39,2.39,0,0,1-.83-1.18,5.63,5.63,0,0,1-.24-1.76v-1.2a6,6,0,0,1,.23-1.75,2.43,2.43,0,0,1,.8-1.19,3.5,3.5,0,0,1,1.49-.69,10,10,0,0,1,2.32-.23h1.42a13.64,13.64,0,0,1,2.46.19,3.6,3.6,0,0,1,1.53.63,2.27,2.27,0,0,1,.78,1.19,6.64,6.64,0,0,1,.21,1.82V36.6h-8.52v.34a1.27,1.27,0,0,0,.43,1,2.49,2.49,0,0,0,1.57.38h1.86c.37,0,.67,0,.92,0a2,2,0,0,0,.58-.12.67.67,0,0,0,.3-.27.93.93,0,0,0,.09-.44h2.77v.18a2.9,2.9,0,0,1-.17,1,1.77,1.77,0,0,1-.69.87,4.09,4.09,0,0,1-1.46.6,10.54,10.54,0,0,1-2.5.24h-1.31A11.24,11.24,0,0,1,140.22,40.15Zm2-6.59a2.84,2.84,0,0,0-1,.14,1.24,1.24,0,0,0-.56.36.88.88,0,0,0-.23.45,2.47,2.47,0,0,0-.05.44H146a2.59,2.59,0,0,0,0-.47,1,1,0,0,0-.26-.45,1.53,1.53,0,0,0-.61-.34,3.53,3.53,0,0,0-1.08-.13Z"/></g></g></svg>