<svg width="798" height="499" viewBox="0 0 798 499" fill="none" xmlns="http://www.w3.org/2000/svg">
<rect x="16.1667" y="-8.24072" width="18" height="40" rx="5" fill="white" fill-opacity="0.05"/>
<path d="M26.1667 60.7593C26.1667 61.3116 25.719 61.7593 25.1667 61.7593C24.6144 61.7593 24.1667 61.3116 24.1667 60.7593L24.1667 31.7593L26.1667 31.7593L26.1667 60.7593Z" fill="white" fill-opacity="0.05"/>
<rect x="173.5" y="-8.24072" width="18" height="36" rx="5" fill="white" fill-opacity="0.05"/>
<path d="M183.5 56.7593C183.5 57.3116 183.052 57.7593 182.5 57.7593C181.948 57.7593 181.5 57.3116 181.5 56.7593L181.5 27.7593L183.5 27.7593L183.5 56.7593Z" fill="white" fill-opacity="0.05"/>
<rect x="645.501" y="-19.4259" width="18" height="63" rx="5" fill="white" fill-opacity="0.05"/>
<path d="M655.501 72.5741C655.501 73.1264 655.053 73.5741 654.501 73.5741C653.948 73.5741 653.501 73.1264 653.501 72.5741L653.501 43.5741L655.501 43.5741L655.501 72.5741Z" fill="white" fill-opacity="0.05"/>
<rect x="409.5" y="-8.24072" width="18" height="70" rx="5" fill="white" fill-opacity="0.05"/>
<path d="M419.5 90.7593C419.5 91.3116 419.053 91.7593 418.5 91.7593C417.948 91.7593 417.5 91.3116 417.5 90.7593L417.5 61.7593L419.5 61.7593L419.5 90.7593Z" fill="white" fill-opacity="0.05"/>
<rect x="94.8334" y="-8.24072" width="18" height="70" rx="5" fill="white" fill-opacity="0.05"/>
<path d="M104.833 90.7593C104.833 91.3116 104.386 91.7593 103.833 91.7593C103.281 91.7593 102.833 91.3116 102.833 90.7593L102.833 61.7593L104.833 61.7593L104.833 90.7593Z" fill="white" fill-opacity="0.05"/>
<path d="M142.167 38.2594C142.167 37.7071 142.615 37.2594 143.167 37.2594C143.719 37.2594 144.167 37.7071 144.167 38.2594V67.2594H142.167V38.2594Z" fill="white" fill-opacity="0.05"/>
<rect x="134.167" y="67.2594" width="18" height="53" rx="5" fill="white" fill-opacity="0.05"/>
<path d="M144.167 149.259C144.167 149.812 143.719 150.259 143.167 150.259C142.615 150.259 142.167 149.812 142.167 149.259L142.167 120.259L144.167 120.259L144.167 149.259Z" fill="white" fill-opacity="0.05"/>
<rect x="291.5" y="-39" width="18" height="42" rx="5" fill="white" fill-opacity="0.05"/>
<path d="M301.5 32C301.5 32.5523 301.053 33 300.5 33C299.948 33 299.5 32.5523 299.5 32L299.5 3L301.5 3L301.5 32Z" fill="white" fill-opacity="0.05"/>
<rect x="370.167" y="-2.64807" width="18" height="50" rx="5" fill="white" fill-opacity="0.05"/>
<path d="M380.167 76.3519C380.167 76.9042 379.719 77.3519 379.167 77.3519C378.615 77.3519 378.167 76.9042 378.167 76.3519L378.167 47.3519L380.167 47.3519L380.167 76.3519Z" fill="white" fill-opacity="0.05"/>
<path d="M535.501 -26.0555C535.501 -26.6078 535.948 -27.0555 536.501 -27.0555C537.053 -27.0555 537.501 -26.6078 537.501 -26.0555V2.94446H535.501V-26.0555Z" fill="white" fill-opacity="0.05"/>
<rect x="527.501" y="2.94446" width="18" height="43" rx="5" fill="white" fill-opacity="0.05"/>
<path d="M537.501 74.9445C537.501 75.4967 537.053 75.9445 536.501 75.9445C535.948 75.9445 535.501 75.4967 535.501 74.9445L535.501 45.9445L537.501 45.9445L537.501 74.9445Z" fill="white" fill-opacity="0.05"/>
<rect x="763.501" y="-8.24072" width="18" height="71" rx="5" fill="white" fill-opacity="0.05"/>
<path d="M773.501 91.7593C773.501 92.3116 773.053 92.7593 772.501 92.7593C771.948 92.7593 771.501 92.3116 771.501 91.7593L771.501 62.7593L773.501 62.7593L773.501 91.7593Z" fill="white" fill-opacity="0.05"/>
<path d="M614.167 24.2778C614.167 23.7255 614.615 23.2778 615.167 23.2778C615.72 23.2778 616.167 23.7255 616.167 24.2778V53.2778H614.167V24.2778Z" fill="white" fill-opacity="0.05"/>
<rect x="606.167" y="53.2778" width="18" height="71" rx="5" fill="white" fill-opacity="0.05"/>
<path d="M616.167 153.278C616.167 153.83 615.72 154.278 615.167 154.278C614.615 154.278 614.167 153.83 614.167 153.278L614.167 124.278L616.167 124.278L616.167 153.278Z" fill="white" fill-opacity="0.05"/>
<path d="M338.834 29.8704C338.834 29.3181 339.281 28.8704 339.834 28.8704C340.386 28.8704 340.834 29.3181 340.834 29.8704V58.8704H338.834V29.8704Z" fill="white" fill-opacity="0.05"/>
<rect x="330.834" y="58.8704" width="18" height="71" rx="5" fill="white" fill-opacity="0.05"/>
<path d="M340.834 158.87C340.834 159.423 340.386 159.87 339.834 159.87C339.281 159.87 338.834 159.423 338.834 158.87L338.834 129.87L340.834 129.87L340.834 158.87Z" fill="white" fill-opacity="0.05"/>
<path d="M456.834 21.4816C456.834 20.9293 457.282 20.4816 457.834 20.4816C458.386 20.4816 458.834 20.9293 458.834 21.4816V50.4816H456.834V21.4816Z" fill="white" fill-opacity="0.1"/>
<rect x="448.834" y="50.4816" width="18" height="66" rx="5" fill="white" fill-opacity="0.1"/>
<path d="M458.834 145.482C458.834 146.034 458.386 146.482 457.834 146.482C457.282 146.482 456.834 146.034 456.834 145.482L456.834 116.482L458.834 116.482L458.834 145.482Z" fill="white" fill-opacity="0.1"/>
<path d="M63.5001 1.90735C63.5001 1.35506 63.9478 0.907349 64.5001 0.907349C65.0523 0.907349 65.5001 1.35506 65.5001 1.90735V30.9073H63.5001V1.90735Z" fill="white" fill-opacity="0.1"/>
<rect x="55.5001" y="30.9073" width="18" height="66" rx="5" fill="white" fill-opacity="0.1"/>
<path d="M65.5001 125.907C65.5001 126.46 65.0523 126.907 64.5001 126.907C63.9478 126.907 63.5001 126.46 63.5001 125.907L63.5001 96.9073L65.5001 96.9073L65.5001 125.907Z" fill="white" fill-opacity="0.1"/>
<rect x="212.834" y="-19.4259" width="18" height="66" rx="5" fill="white" fill-opacity="0.1"/>
<path d="M222.834 75.5741C222.834 76.1264 222.386 76.5741 221.834 76.5741C221.281 76.5741 220.834 76.1264 220.834 75.5741L220.834 46.5741L222.834 46.5741L222.834 75.5741Z" fill="white" fill-opacity="0.1"/>
<path d="M260.167 52.2408C260.167 51.6886 260.615 51.2408 261.167 51.2408C261.719 51.2408 262.167 51.6886 262.167 52.2408V81.2408H260.167V52.2408Z" fill="white" fill-opacity="0.1"/>
<rect x="252.167" y="81.2408" width="18" height="49" rx="5" fill="white" fill-opacity="0.1"/>
<path d="M262.167 159.241C262.167 159.793 261.719 160.241 261.167 160.241C260.615 160.241 260.167 159.793 260.167 159.241L260.167 130.241L262.167 130.241L262.167 159.241Z" fill="white" fill-opacity="0.1"/>
<rect x="488.167" y="-33.4073" width="18" height="66" rx="5" fill="white" fill-opacity="0.1"/>
<path d="M498.167 61.5927C498.167 62.1449 497.719 62.5927 497.167 62.5927C496.615 62.5927 496.167 62.1449 496.167 61.5927L496.167 32.5927L498.167 32.5927L498.167 61.5927Z" fill="white" fill-opacity="0.1"/>
<path d="M574.834 55.0371C574.834 54.4848 575.282 54.0371 575.834 54.0371C576.386 54.0371 576.834 54.4848 576.834 55.0371V84.0371H574.834V55.0371Z" fill="white" fill-opacity="0.1"/>
<rect x="566.834" y="84.0371" width="18" height="66" rx="5" fill="white" fill-opacity="0.1"/>
<path d="M576.834 179.037C576.834 179.589 576.386 180.037 575.834 180.037C575.282 180.037 574.834 179.589 574.834 179.037L574.834 150.037L576.834 150.037L576.834 179.037Z" fill="white" fill-opacity="0.1"/>
<path d="M732.167 -17.6666C732.167 -18.2189 732.615 -18.6666 733.167 -18.6666C733.72 -18.6666 734.167 -18.2189 734.167 -17.6666V11.3334H732.167V-17.6666Z" fill="white" fill-opacity="0.1"/>
<rect x="724.167" y="11.3334" width="18" height="66" rx="5" fill="white" fill-opacity="0.1"/>
<path d="M734.167 106.333C734.167 106.886 733.72 107.333 733.167 107.333C732.615 107.333 732.167 106.886 732.167 106.333L732.167 77.3334L734.167 77.3334L734.167 106.333Z" fill="white" fill-opacity="0.1"/>
</svg>
